<svg width="489" height="489" viewBox="0 0 489 489" fill="none" xmlns="http://www.w3.org/2000/svg">
<g clip-path="url(#clip0_26_5)">
<path d="M250.5 488.809C226.507 488.674 203.007 488.848 179.523 488.321C154.081 487.749 128.626 486.731 103.708 480.763C52.7222 468.552 14.5148 427.02 6.08419 375.392C1.15563 345.209 0.370211 314.81 0.211405 284.363C0.0436657 252.203 -0.252584 220.03 0.421778 187.882C1.01363 159.668 0.97761 131.206 8.3302 103.694C22.2899 51.4607 55.979 19.1374 108.784 7.19318C128.974 2.6264 149.6 1.82388 170.238 1.06821C213.385 -0.511634 256.54 -0.0174172 299.68 0.519982C327.915 0.871705 356.316 1.177 383.969 8.13195C435.312 21.0453 467.699 53.4007 480.759 104.615C487.083 129.41 487.381 154.914 488.161 180.379C489.084 210.531 488.499 240.671 488.78 270.815C489.012 295.628 488.48 320.44 486.666 345.182C485.105 366.458 482.511 387.775 473.423 407.341C454.907 447.202 424.148 472.4 380.923 481.726C362.167 485.773 343.089 487.041 323.954 487.884C299.64 488.955 275.321 488.757 250.5 488.809Z" fill="black"/>
<path d="M154.313 317.789C144.979 329.515 135.624 341.226 126.318 352.975C121.712 358.791 118.859 365.225 120.227 372.853C122.073 383.14 127.963 390.137 138.023 393.022C148.679 396.078 157.402 392.247 164.189 383.996C174.88 371.001 185.348 357.822 195.862 344.683C234.999 295.778 274.125 246.864 313.238 197.939C329.778 177.25 346.254 156.51 362.803 135.827C366.915 130.689 369.408 124.903 369.035 118.35C368.435 107.807 361.291 98.9382 351.706 96.0797C341.688 93.0924 331.736 96.2114 324.93 104.704C288.795 149.795 252.7 194.919 216.589 240.029C195.984 265.769 175.374 291.505 154.313 317.789Z" fill="white"/>
</g>
<defs>
<clipPath id="clip0_26_5">
<rect width="489" height="489" fill="white"/>
</clipPath>
</defs>
</svg>
